<svg width="16" height="16" viewBox="0 0 24 24" xmlns="http://www.w3.org/2000/svg">
    <path
        d="M15.4545 9.662L19.6903 7.26197C20.0513 7.05742 20.2318 6.95514 20.3787 7.03609C20.5255 7.11703 20.5352 7.31979 20.5545 7.72529C20.5806 8.27185 20.5947 8.90551 20.6107 9.6547C20.615 9.85716 20.6185 9.9956 20.621 10.0968C20.6347 10.6485 21.058 11.1048 21.6098 11.1166C22.1615 11.1283 22.634 10.6909 22.6209 10.1392C22.6183 10.0269 22.6142 9.86761 22.6088 9.61215L22.6072 9.53677C22.5759 8.07128 22.5501 6.86037 22.3795 5.87916C22.1977 4.8336 21.8388 3.95811 21.0894 3.20674C20.666 2.78228 20.1996 2.4827 19.6838 2.26889C19.6053 2.22604 19.5211 2.19373 19.4335 2.17311C19.1037 2.05684 18.7544 1.97116 18.3841 1.90676C17.3831 1.73265 16.1413 1.70152 14.6319 1.66368L14.557 1.66181C12.6013 1.61273 11.1482 1.61274 9.19246 1.66181L9.11761 1.66369C7.60825 1.70152 6.36636 1.73265 5.3654 1.90675C4.30303 2.09154 3.41352 2.45141 2.66011 3.20674C1.91066 3.95811 1.55181 4.8336 1.37001 5.87916C1.1994 6.86038 1.17359 8.07123 1.14234 9.53675L1.14073 9.61214C1.11942 10.6101 1.11943 11.14 1.14074 12.1379L1.14235 12.2133C1.1736 13.6788 1.19942 14.8896 1.37003 15.8709C1.55182 16.9164 1.91067 17.7919 2.66013 18.5433C3.41353 19.2986 4.30305 19.6585 5.36542 19.8433C6.36638 20.0174 7.60825 20.0485 9.11761 20.0863L9.19247 20.0882C9.52067 20.0964 9.72205 20.1033 9.877 20.1088C10.4278 20.1282 10.8746 19.6782 10.8746 19.127C10.8746 18.5758 10.4277 18.1314 9.87684 18.1118C9.73174 18.1066 9.54168 18.1003 9.24267 18.0928C7.63972 18.0526 6.54649 18.0226 5.7083 17.8768C4.91502 17.7388 4.45285 17.5124 4.07597 17.1345C3.69514 16.7527 3.47251 16.2968 3.33907 15.5293C3.19736 14.7143 3.17211 13.6553 3.1388 12.0953C3.1181 11.1258 3.11809 10.6242 3.13879 9.6547C3.15478 8.90561 3.16892 8.27204 3.19498 7.72553C3.21433 7.32001 3.224 7.11725 3.37084 7.0363C3.51768 6.95535 3.69819 7.05763 4.05921 7.26219L8.29461 9.662C9.59422 10.3984 10.6934 10.875 11.8746 10.875C13.0558 10.875 14.1549 10.3984 15.4545 9.662Z"
        fill="currentColor" />
    <path fill-rule="evenodd" clip-rule="evenodd"
        d="M17.375 13.375C15.442 13.375 13.875 14.942 13.875 16.875C13.875 18.808 15.442 20.375 17.375 20.375C17.9273 20.375 18.375 20.8227 18.375 21.375C18.375 21.9273 17.9273 22.375 17.375 22.375C14.3374 22.375 11.875 19.9126 11.875 16.875C11.875 13.8374 14.3374 11.375 17.375 11.375C20.4126 11.375 22.875 13.8374 22.875 16.875V17.375C22.875 18.7557 21.7557 19.875 20.375 19.875C19.6546 19.875 19.0053 19.5703 18.5491 19.0827C18.1991 19.2693 17.7994 19.375 17.375 19.375C15.9943 19.375 14.875 18.2557 14.875 16.875C14.875 15.4943 15.9943 14.375 17.375 14.375C18.7557 14.375 19.875 15.4943 19.875 16.875V17.375C19.875 17.6511 20.0989 17.875 20.375 17.875C20.6511 17.875 20.875 17.6511 20.875 17.375V16.875C20.875 14.942 19.308 13.375 17.375 13.375ZM17.875 16.875C17.875 16.5989 17.6511 16.375 17.375 16.375C17.0989 16.375 16.875 16.5989 16.875 16.875C16.875 17.1511 17.0989 17.375 17.375 17.375C17.6511 17.375 17.875 17.1511 17.875 16.875Z"
        fill="currentColor" />
</svg>