<svg width="64" height="64" viewBox="0 0 64 64" fill="none" xmlns="http://www.w3.org/2000/svg">
<path d="M26.8413 50.4207C26.8413 49.3838 26.8413 48.8653 26.9278 48.4341C27.2827 46.6635 28.6776 45.2794 30.462 44.9273C30.8966 44.8415 31.4191 44.8415 32.4642 44.8415C33.5092 44.8415 34.0318 44.8415 34.4663 44.9273C36.2507 45.2794 37.6456 46.6635 38.0006 48.4341C38.087 48.8653 38.087 49.3838 38.087 50.4207V52.2805C38.087 53.671 38.087 54.3663 37.7857 54.8841C37.5883 55.2234 37.3044 55.5051 36.9624 55.701C36.4405 56 35.7398 56 34.3384 56H30.5899C29.1885 56 28.4878 56 27.9659 55.701C27.624 55.5051 27.3401 55.2234 27.1427 54.8841C26.8413 54.3663 26.8413 53.671 26.8413 52.2805V50.4207Z" fill="url(#paint0_radial_246_2)"/>
<path d="M26.8413 50.4207C26.8413 49.3838 26.8413 48.8653 26.9278 48.4341C27.2827 46.6635 28.6776 45.2794 30.462 44.9273C30.8966 44.8415 31.4191 44.8415 32.4642 44.8415C33.5092 44.8415 34.0318 44.8415 34.4663 44.9273C36.2507 45.2794 37.6456 46.6635 38.0006 48.4341C38.087 48.8653 38.087 49.3838 38.087 50.4207V52.2805C38.087 53.671 38.087 54.3663 37.7857 54.8841C37.5883 55.2234 37.3044 55.5051 36.9624 55.701C36.4405 56 35.7398 56 34.3384 56H30.5899C29.1885 56 28.4878 56 27.9659 55.701C27.624 55.5051 27.3401 55.2234 27.1427 54.8841C26.8413 54.3663 26.8413 53.671 26.8413 52.2805V50.4207Z" fill="#F3B4A6" fill-opacity="0.06"/>
<path d="M18.4175 56H22.2709C22.7071 56 22.9253 56 23.0378 55.8624C23.1503 55.7247 23.1032 55.5029 23.0089 55.0591C19.2983 37.5887 36.4566 41.5163 38.9408 29.429C40.2087 23.26 36.5997 14.9798 36.8128 9.22646C36.8395 8.50534 36.8528 8.14477 36.6563 8.03302C36.4597 7.92127 36.1758 8.10056 35.6081 8.45916C27.5879 13.5246 21.7431 23.2078 23.8792 29.1488C24.2058 30.057 24.369 30.5111 24.1626 30.677C23.9561 30.8428 23.6067 30.629 22.9079 30.2015C21.7716 29.5063 20.4212 28.3682 19.4824 26.575C19.207 26.0489 19.0693 25.7859 18.8672 25.766C18.6652 25.7461 18.4916 25.9605 18.1444 26.3893C8.05288 38.8523 12.1423 51.2982 17.9708 55.8501C18.0638 55.9227 18.1103 55.959 18.1699 55.9795C18.2295 56 18.2922 56 18.4175 56Z" fill="url(#paint1_radial_246_2)"/>
<path d="M18.4175 56H22.2709C22.7071 56 22.9253 56 23.0378 55.8624C23.1503 55.7247 23.1032 55.5029 23.0089 55.0591C19.2983 37.5887 36.4566 41.5163 38.9408 29.429C40.2087 23.26 36.5997 14.9798 36.8128 9.22646C36.8395 8.50534 36.8528 8.14477 36.6563 8.03302C36.4597 7.92127 36.1758 8.10056 35.6081 8.45916C27.5879 13.5246 21.7431 23.2078 23.8792 29.1488C24.2058 30.057 24.369 30.5111 24.1626 30.677C23.9561 30.8428 23.6067 30.629 22.9079 30.2015C21.7716 29.5063 20.4212 28.3682 19.4824 26.575C19.207 26.0489 19.0693 25.7859 18.8672 25.766C18.6652 25.7461 18.4916 25.9605 18.1444 26.3893C8.05288 38.8523 12.1423 51.2982 17.9708 55.8501C18.0638 55.9227 18.1103 55.959 18.1699 55.9795C18.2295 56 18.2922 56 18.4175 56Z" fill="#F3B4A6" fill-opacity="0.06"/>
<path d="M43.5557 27.6643C44.0723 33.3901 40.6002 37.3066 36.6343 40.0195C35.9419 40.4932 35.5958 40.73 35.6257 40.9556C35.6556 41.1812 36.0693 41.3273 36.8968 41.6195C42.1847 43.4869 42.4251 48.8397 41.9872 55.1997C41.9613 55.5758 41.9484 55.7639 42.0595 55.8819C42.1707 56 42.3596 56 42.7373 56H46.0405C46.1406 56 46.1906 56 46.239 55.9869C46.2875 55.9737 46.3305 55.9486 46.4165 55.8983C58.2576 48.9682 51.9002 32.4135 44.6763 26.949C44.1497 26.5506 43.8864 26.3514 43.6724 26.4687C43.4584 26.5859 43.4908 26.9453 43.5557 27.6643Z" fill="url(#paint2_radial_246_2)"/>
<path d="M43.5557 27.6643C44.0723 33.3901 40.6002 37.3066 36.6343 40.0195C35.9419 40.4932 35.5958 40.73 35.6257 40.9556C35.6556 41.1812 36.0693 41.3273 36.8968 41.6195C42.1847 43.4869 42.4251 48.8397 41.9872 55.1997C41.9613 55.5758 41.9484 55.7639 42.0595 55.8819C42.1707 56 42.3596 56 42.7373 56H46.0405C46.1406 56 46.1906 56 46.239 55.9869C46.2875 55.9737 46.3305 55.9486 46.4165 55.8983C58.2576 48.9682 51.9002 32.4135 44.6763 26.949C44.1497 26.5506 43.8864 26.3514 43.6724 26.4687C43.4584 26.5859 43.4908 26.9453 43.5557 27.6643Z" fill="#F3B4A6" fill-opacity="0.06"/>
<defs>
<radialGradient id="paint0_radial_246_2" cx="0" cy="0" r="1" gradientUnits="userSpaceOnUse" gradientTransform="translate(32.4296 14.4161) rotate(90) scale(52.4449 44.7967)">
<stop stop-color="#FF343C"/>
<stop offset="1" stop-color="#F06F53"/>
</radialGradient>
<radialGradient id="paint1_radial_246_2" cx="0" cy="0" r="1" gradientUnits="userSpaceOnUse" gradientTransform="translate(32.4296 14.4161) rotate(90) scale(52.4449 44.7967)">
<stop stop-color="#FF343C"/>
<stop offset="1" stop-color="#F06F53"/>
</radialGradient>
<radialGradient id="paint2_radial_246_2" cx="0" cy="0" r="1" gradientUnits="userSpaceOnUse" gradientTransform="translate(32.4296 14.4161) rotate(90) scale(52.4449 44.7967)">
<stop stop-color="#FF343C"/>
<stop offset="1" stop-color="#F06F53"/>
</radialGradient>
</defs>
</svg>
