<svg width="1920" height="1080" viewBox="0 0 1920 1080" fill="none" xmlns="http://www.w3.org/2000/svg">
<g clip-path="url(#clip0_227_406)">
<g clip-path="url(#clip1_227_406)">
<ellipse cx="960" cy="700" rx="564" ry="575" fill="url(#paint0_linear_227_406)" fill-opacity="0.07"/>
<path d="M1523.5 700C1523.5 1017.3 1271.2 1274.5 960 1274.5C648.797 1274.5 396.5 1017.3 396.5 700C396.5 382.703 648.797 125.5 960 125.5C1271.2 125.5 1523.5 382.703 1523.5 700Z" stroke="url(#paint1_linear_227_406)" stroke-opacity="0.19"/>
<g opacity="0.6">
<ellipse cx="960" cy="650" rx="613" ry="625" fill="url(#paint2_linear_227_406)" fill-opacity="0.07"/>
<path d="M1572.5 650C1572.5 994.911 1298.27 1274.5 960 1274.5C621.735 1274.5 347.5 994.911 347.5 650C347.5 305.089 621.735 25.5 960 25.5C1298.27 25.5 1572.5 305.089 1572.5 650Z" stroke="url(#paint3_linear_227_406)" stroke-opacity="0.19"/>
</g>
<g opacity="0.4">
<ellipse cx="959.5" cy="601.5" rx="660.5" ry="673.5" fill="url(#paint4_linear_227_406)" fill-opacity="0.07"/>
<path d="M1619.5 601.5C1619.5 973.197 1324 1274.5 959.5 1274.5C595.001 1274.5 299.5 973.197 299.5 601.5C299.5 229.803 595.001 -71.5 959.5 -71.5C1324 -71.5 1619.5 229.803 1619.5 601.5Z" stroke="url(#paint5_linear_227_406)" stroke-opacity="0.19"/>
</g>
<path d="M840.478 1049.44C840.478 1027.41 840.478 1016.39 842.303 1007.23C849.801 969.6 879.264 940.188 916.954 932.704C926.132 930.882 937.169 930.882 959.243 930.882C981.317 930.882 992.354 930.882 1001.53 932.704C1039.22 940.188 1068.69 969.6 1076.18 1007.23C1078.01 1016.39 1078.01 1027.41 1078.01 1049.44V1088.96C1078.01 1118.51 1078.01 1133.28 1071.64 1144.29C1067.47 1151.5 1061.48 1157.48 1054.26 1161.65C1043.23 1168 1028.43 1168 998.832 1168H919.655C890.055 1168 875.255 1168 864.231 1161.65C857.009 1157.48 851.012 1151.5 846.842 1144.29C840.478 1133.28 840.478 1118.51 840.478 1088.96V1049.44Z" fill="#1F1010" fill-opacity="0.27"/>
<path d="M662.551 1168H743.941C753.156 1168 757.763 1168 760.14 1165.08C762.516 1162.15 761.521 1157.44 759.53 1148.01C681.155 776.76 1043.57 860.221 1096.04 603.367C1122.82 472.275 1046.59 296.32 1051.09 174.062C1051.66 158.738 1051.94 151.076 1047.79 148.702C1043.64 146.327 1037.64 150.137 1025.65 157.757C856.247 265.398 732.794 471.165 777.913 597.413C784.81 616.712 788.258 626.361 783.897 629.885C779.536 633.409 772.156 628.867 757.396 619.781C733.395 605.008 704.872 580.824 685.044 542.719C679.226 531.539 676.317 525.95 672.05 525.527C667.782 525.104 664.115 529.661 656.781 538.773C443.629 803.611 530.006 1068.09 653.115 1164.81C655.079 1166.36 656.062 1167.13 657.321 1167.56C658.579 1168 659.903 1168 662.551 1168Z" fill="#1F1010" fill-opacity="0.27"/>
<path d="M1193.52 565.867C1204.43 687.54 1131.09 770.765 1047.32 828.415C1032.7 838.48 1025.39 843.513 1026.02 848.306C1026.65 853.1 1035.39 856.205 1052.87 862.414C1164.56 902.096 1169.64 1015.84 1160.39 1150.99C1159.84 1158.99 1159.57 1162.98 1161.92 1165.49C1164.26 1168 1168.25 1168 1176.23 1168H1246C1248.12 1168 1249.17 1168 1250.2 1167.72C1251.22 1167.44 1252.13 1166.91 1253.94 1165.84C1504.05 1018.57 1369.77 666.786 1217.19 550.666C1206.06 542.201 1200.5 537.968 1195.98 540.459C1191.46 542.95 1192.15 550.589 1193.52 565.867Z" fill="#1F1010" fill-opacity="0.27"/>
<path d="M840.478 1049.44C840.478 1027.41 840.478 1016.39 842.303 1007.23C849.801 969.6 879.264 940.188 916.954 932.704C926.132 930.882 937.169 930.882 959.243 930.882C981.317 930.882 992.354 930.882 1001.53 932.704C1039.22 940.188 1068.69 969.6 1076.18 1007.23C1078.01 1016.39 1078.01 1027.41 1078.01 1049.44V1088.96C1078.01 1118.51 1078.01 1133.28 1071.64 1144.29C1067.47 1151.5 1061.48 1157.48 1054.26 1161.65C1043.23 1168 1028.43 1168 998.832 1168H919.655C890.055 1168 875.255 1168 864.231 1161.65C857.009 1157.48 851.012 1151.5 846.842 1144.29C840.478 1133.28 840.478 1118.51 840.478 1088.96V1049.44Z" stroke="url(#paint6_linear_227_406)"/>
<path d="M662.551 1168H743.941C753.156 1168 757.763 1168 760.14 1165.08C762.516 1162.15 761.521 1157.44 759.53 1148.01C681.155 776.76 1043.57 860.221 1096.04 603.367C1122.82 472.275 1046.59 296.32 1051.09 174.062C1051.66 158.738 1051.94 151.076 1047.79 148.702C1043.64 146.327 1037.64 150.137 1025.65 157.757C856.247 265.398 732.794 471.165 777.913 597.413C784.81 616.712 788.258 626.361 783.897 629.885C779.536 633.409 772.156 628.867 757.396 619.781C733.395 605.008 704.872 580.824 685.044 542.719C679.226 531.539 676.317 525.95 672.05 525.527C667.782 525.104 664.115 529.661 656.781 538.773C443.629 803.611 530.006 1068.09 653.115 1164.81C655.079 1166.36 656.062 1167.13 657.321 1167.56C658.579 1168 659.903 1168 662.551 1168Z" stroke="url(#paint7_linear_227_406)"/>
<path d="M1193.52 565.867C1204.43 687.54 1131.09 770.765 1047.32 828.415C1032.7 838.48 1025.39 843.513 1026.02 848.306C1026.65 853.1 1035.39 856.205 1052.87 862.414C1164.56 902.096 1169.64 1015.84 1160.39 1150.99C1159.84 1158.99 1159.57 1162.98 1161.92 1165.49C1164.26 1168 1168.25 1168 1176.23 1168H1246C1248.12 1168 1249.17 1168 1250.2 1167.72C1251.22 1167.44 1252.13 1166.91 1253.94 1165.84C1504.05 1018.57 1369.77 666.786 1217.19 550.666C1206.06 542.201 1200.5 537.968 1195.98 540.459C1191.46 542.95 1192.15 550.589 1193.52 565.867Z" stroke="url(#paint8_linear_227_406)"/>
<g filter="url(#filter0_d_227_406)">
<path d="M840.478 1049.44C840.478 1027.41 840.478 1016.39 842.303 1007.23C849.801 969.6 879.264 940.188 916.954 932.704C926.132 930.882 937.169 930.882 959.243 930.882C981.317 930.882 992.354 930.882 1001.53 932.704C1039.22 940.188 1068.69 969.6 1076.18 1007.23C1078.01 1016.39 1078.01 1027.41 1078.01 1049.44V1088.96C1078.01 1118.51 1078.01 1133.28 1071.64 1144.29C1067.47 1151.5 1061.48 1157.48 1054.26 1161.65C1043.23 1168 1028.43 1168 998.832 1168H919.655C890.055 1168 875.255 1168 864.231 1161.65C857.009 1157.48 851.012 1151.5 846.842 1144.29C840.478 1133.28 840.478 1118.51 840.478 1088.96V1049.44Z" fill="#1F1010" fill-opacity="0.27" shape-rendering="crispEdges"/>
<path d="M662.551 1168H743.941C753.156 1168 757.763 1168 760.14 1165.08C762.516 1162.15 761.521 1157.44 759.53 1148.01C681.155 776.76 1043.57 860.221 1096.04 603.367C1122.82 472.275 1046.59 296.32 1051.09 174.062C1051.66 158.738 1051.94 151.076 1047.79 148.702C1043.64 146.327 1037.64 150.137 1025.65 157.757C856.247 265.398 732.794 471.165 777.913 597.413C784.81 616.712 788.258 626.361 783.897 629.885C779.536 633.409 772.156 628.867 757.396 619.781C733.395 605.008 704.872 580.824 685.044 542.719C679.226 531.539 676.317 525.95 672.05 525.527C667.782 525.104 664.115 529.661 656.781 538.773C443.629 803.611 530.006 1068.09 653.115 1164.81C655.079 1166.36 656.062 1167.13 657.321 1167.56C658.579 1168 659.903 1168 662.551 1168Z" fill="#1F1010" fill-opacity="0.27" shape-rendering="crispEdges"/>
<path d="M1193.52 565.867C1204.43 687.54 1131.09 770.765 1047.32 828.415C1032.7 838.48 1025.39 843.513 1026.02 848.306C1026.65 853.1 1035.39 856.205 1052.87 862.414C1164.56 902.096 1169.64 1015.84 1160.39 1150.99C1159.84 1158.99 1159.57 1162.98 1161.92 1165.49C1164.26 1168 1168.25 1168 1176.23 1168H1246C1248.12 1168 1249.17 1168 1250.2 1167.72C1251.22 1167.44 1252.13 1166.91 1253.94 1165.84C1504.05 1018.57 1369.77 666.786 1217.19 550.666C1206.06 542.201 1200.5 537.968 1195.98 540.459C1191.46 542.95 1192.15 550.589 1193.52 565.867Z" fill="#1F1010" fill-opacity="0.27" shape-rendering="crispEdges"/>
<path d="M840.478 1049.44C840.478 1027.41 840.478 1016.39 842.303 1007.23C849.801 969.6 879.264 940.188 916.954 932.704C926.132 930.882 937.169 930.882 959.243 930.882C981.317 930.882 992.354 930.882 1001.53 932.704C1039.22 940.188 1068.69 969.6 1076.18 1007.23C1078.01 1016.39 1078.01 1027.41 1078.01 1049.44V1088.96C1078.01 1118.51 1078.01 1133.28 1071.64 1144.29C1067.47 1151.5 1061.48 1157.48 1054.26 1161.65C1043.23 1168 1028.43 1168 998.832 1168H919.655C890.055 1168 875.255 1168 864.231 1161.65C857.009 1157.48 851.012 1151.5 846.842 1144.29C840.478 1133.28 840.478 1118.51 840.478 1088.96V1049.44Z" stroke="url(#paint9_linear_227_406)" shape-rendering="crispEdges"/>
<path d="M662.551 1168H743.941C753.156 1168 757.763 1168 760.14 1165.08C762.516 1162.15 761.521 1157.44 759.53 1148.01C681.155 776.76 1043.57 860.221 1096.04 603.367C1122.82 472.275 1046.59 296.32 1051.09 174.062C1051.66 158.738 1051.94 151.076 1047.79 148.702C1043.64 146.327 1037.64 150.137 1025.65 157.757C856.247 265.398 732.794 471.165 777.913 597.413C784.81 616.712 788.258 626.361 783.897 629.885C779.536 633.409 772.156 628.867 757.396 619.781C733.395 605.008 704.872 580.824 685.044 542.719C679.226 531.539 676.317 525.95 672.05 525.527C667.782 525.104 664.115 529.661 656.781 538.773C443.629 803.611 530.006 1068.09 653.115 1164.81C655.079 1166.36 656.062 1167.13 657.321 1167.56C658.579 1168 659.903 1168 662.551 1168Z" stroke="url(#paint10_linear_227_406)" shape-rendering="crispEdges"/>
<path d="M1193.52 565.867C1204.43 687.54 1131.09 770.765 1047.32 828.415C1032.7 838.48 1025.39 843.513 1026.02 848.306C1026.65 853.1 1035.39 856.205 1052.87 862.414C1164.56 902.096 1169.64 1015.84 1160.39 1150.99C1159.84 1158.99 1159.57 1162.98 1161.92 1165.49C1164.26 1168 1168.25 1168 1176.23 1168H1246C1248.12 1168 1249.17 1168 1250.2 1167.72C1251.22 1167.44 1252.13 1166.91 1253.94 1165.84C1504.05 1018.57 1369.77 666.786 1217.19 550.666C1206.06 542.201 1200.5 537.968 1195.98 540.459C1191.46 542.95 1192.15 550.589 1193.52 565.867Z" stroke="url(#paint11_linear_227_406)" shape-rendering="crispEdges"/>
</g>
</g>
<rect width="1920" height="202" transform="translate(0 878)" fill="url(#paint12_radial_227_406)"/>
<rect width="1920" height="202" transform="translate(1920 1282) rotate(-180)" fill="url(#paint13_radial_227_406)"/>
</g>
<defs>
<filter id="filter0_d_227_406" x="437.7" y="62.6998" width="1044.6" height="1198.6" filterUnits="userSpaceOnUse" color-interpolation-filters="sRGB">
<feFlood flood-opacity="0" result="BackgroundImageFix"/>
<feColorMatrix in="SourceAlpha" type="matrix" values="0 0 0 0 0 0 0 0 0 0 0 0 0 0 0 0 0 0 127 0" result="hardAlpha"/>
<feOffset dy="4"/>
<feGaussianBlur stdDeviation="44.4"/>
<feComposite in2="hardAlpha" operator="out"/>
<feColorMatrix type="matrix" values="0 0 0 0 0.870833 0 0 0 0 0.246736 0 0 0 0 0.246736 0 0 0 0.06 0"/>
<feBlend mode="normal" in2="BackgroundImageFix" result="effect1_dropShadow_227_406"/>
<feBlend mode="normal" in="SourceGraphic" in2="effect1_dropShadow_227_406" result="shape"/>
</filter>
<linearGradient id="paint0_linear_227_406" x1="960" y1="125" x2="960" y2="1275" gradientUnits="userSpaceOnUse">
<stop stop-color="#261B1B"/>
<stop offset="1" stop-color="#261B1B" stop-opacity="0"/>
</linearGradient>
<linearGradient id="paint1_linear_227_406" x1="960" y1="125" x2="960" y2="1275" gradientUnits="userSpaceOnUse">
<stop stop-color="#F06032"/>
<stop offset="1" stop-color="#F06032" stop-opacity="0"/>
</linearGradient>
<linearGradient id="paint2_linear_227_406" x1="960" y1="25" x2="960" y2="1275" gradientUnits="userSpaceOnUse">
<stop stop-color="#261B1B"/>
<stop offset="1" stop-color="#261B1B" stop-opacity="0"/>
</linearGradient>
<linearGradient id="paint3_linear_227_406" x1="960" y1="25" x2="960" y2="1275" gradientUnits="userSpaceOnUse">
<stop stop-color="#F06032"/>
<stop offset="1" stop-color="#F06032" stop-opacity="0"/>
</linearGradient>
<linearGradient id="paint4_linear_227_406" x1="959.5" y1="-72" x2="959.5" y2="1275" gradientUnits="userSpaceOnUse">
<stop stop-color="#261B1B"/>
<stop offset="1" stop-color="#261B1B" stop-opacity="0"/>
</linearGradient>
<linearGradient id="paint5_linear_227_406" x1="959.5" y1="-72" x2="959.5" y2="1275" gradientUnits="userSpaceOnUse">
<stop stop-color="#F06032"/>
<stop offset="1" stop-color="#F06032" stop-opacity="0"/>
</linearGradient>
<linearGradient id="paint6_linear_227_406" x1="960" y1="148" x2="960" y2="1168" gradientUnits="userSpaceOnUse">
<stop stop-color="#661B2D" stop-opacity="0.1"/>
<stop offset="1" stop-color="#561919" stop-opacity="0.71"/>
</linearGradient>
<linearGradient id="paint7_linear_227_406" x1="960" y1="148" x2="960" y2="1168" gradientUnits="userSpaceOnUse">
<stop stop-color="#661B2D" stop-opacity="0.1"/>
<stop offset="1" stop-color="#561919" stop-opacity="0.71"/>
</linearGradient>
<linearGradient id="paint8_linear_227_406" x1="960" y1="148" x2="960" y2="1168" gradientUnits="userSpaceOnUse">
<stop stop-color="#661B2D" stop-opacity="0.1"/>
<stop offset="1" stop-color="#561919" stop-opacity="0.71"/>
</linearGradient>
<linearGradient id="paint9_linear_227_406" x1="960" y1="148" x2="960" y2="1168" gradientUnits="userSpaceOnUse">
<stop stop-color="#661B2D" stop-opacity="0.1"/>
<stop offset="1" stop-color="#561919" stop-opacity="0.71"/>
</linearGradient>
<linearGradient id="paint10_linear_227_406" x1="960" y1="148" x2="960" y2="1168" gradientUnits="userSpaceOnUse">
<stop stop-color="#661B2D" stop-opacity="0.1"/>
<stop offset="1" stop-color="#561919" stop-opacity="0.71"/>
</linearGradient>
<linearGradient id="paint11_linear_227_406" x1="960" y1="148" x2="960" y2="1168" gradientUnits="userSpaceOnUse">
<stop stop-color="#661B2D" stop-opacity="0.1"/>
<stop offset="1" stop-color="#561919" stop-opacity="0.71"/>
</linearGradient>
<radialGradient id="paint12_radial_227_406" cx="0" cy="0" r="1" gradientUnits="userSpaceOnUse" gradientTransform="translate(960 -8.49999) rotate(90) scale(210.5 2000.79)">
<stop offset="0.440706" stop-opacity="0"/>
<stop offset="1" stop-color="#020101"/>
</radialGradient>
<radialGradient id="paint13_radial_227_406" cx="0" cy="0" r="1" gradientUnits="userSpaceOnUse" gradientTransform="translate(960 -8.49999) rotate(90) scale(210.5 2000.79)">
<stop offset="0.440706" stop-opacity="0"/>
<stop offset="1" stop-color="#020101"/>
</radialGradient>
<clipPath id="clip0_227_406">
<rect width="1920" height="1080" fill="white"/>
</clipPath>
<clipPath id="clip1_227_406">
<rect width="1920" height="1080" fill="white"/>
</clipPath>
</defs>
</svg>
