<svg width="1920" height="1080" viewBox="0 0 1920 1080" fill="none" xmlns="http://www.w3.org/2000/svg">
<g clip-path="url(#clip0_227_406)">
<g clip-path="url(#clip1_227_406)">
<ellipse cx="1492" cy="708" rx="564" ry="575" fill="url(#paint0_linear_227_406)" fill-opacity="0.07"/>
<path d="M2055.5 708C2055.5 1025.3 1803.2 1282.5 1492 1282.5C1180.8 1282.5 928.5 1025.3 928.5 708C928.5 390.703 1180.8 133.5 1492 133.5C1803.2 133.5 2055.5 390.703 2055.5 708Z" stroke="url(#paint1_linear_227_406)" stroke-opacity="0.19"/>
<g opacity="0.6">
<ellipse cx="1443" cy="658" rx="613" ry="625" fill="url(#paint2_linear_227_406)" fill-opacity="0.07"/>
<path d="M2055.5 658C2055.5 1002.91 1781.27 1282.5 1443 1282.5C1104.73 1282.5 830.5 1002.91 830.5 658C830.5 313.089 1104.73 33.5 1443 33.5C1781.27 33.5 2055.5 313.089 2055.5 658Z" stroke="url(#paint3_linear_227_406)" stroke-opacity="0.19"/>
</g>
<g opacity="0.4">
<ellipse cx="1395.5" cy="609.5" rx="660.5" ry="673.5" fill="url(#paint4_linear_227_406)" fill-opacity="0.07"/>
<path d="M2055.5 609.5C2055.5 981.197 1760 1282.5 1395.5 1282.5C1031 1282.5 735.5 981.197 735.5 609.5C735.5 237.803 1031 -63.5 1395.5 -63.5C1760 -63.5 2055.5 237.803 2055.5 609.5Z" stroke="url(#paint5_linear_227_406)" stroke-opacity="0.19"/>
</g>
<path d="M1367.48 1079.44C1367.48 1057.41 1367.48 1046.39 1369.3 1037.23C1376.8 999.6 1406.26 970.188 1443.95 962.704C1453.13 960.882 1464.17 960.882 1486.24 960.882C1508.32 960.882 1519.35 960.882 1528.53 962.704C1566.22 970.188 1595.69 999.6 1603.18 1037.23C1605.01 1046.39 1605.01 1057.41 1605.01 1079.44V1118.96C1605.01 1148.51 1605.01 1163.28 1598.64 1174.29C1594.47 1181.5 1588.48 1187.48 1581.26 1191.65C1570.23 1198 1555.43 1198 1525.83 1198H1446.65C1417.05 1198 1402.25 1198 1391.23 1191.65C1384.01 1187.48 1378.01 1181.5 1373.84 1174.29C1367.48 1163.28 1367.48 1148.51 1367.48 1118.96V1079.44Z" fill="#1F1010" fill-opacity="0.27"/>
<path d="M1189.55 1198H1270.94C1280.16 1198 1284.76 1198 1287.14 1195.08C1289.52 1192.15 1288.52 1187.44 1286.53 1178.01C1208.16 806.76 1570.57 890.221 1623.04 633.367C1649.82 502.275 1573.59 326.32 1578.09 204.062C1578.66 188.738 1578.94 181.076 1574.79 178.702C1570.64 176.327 1564.64 180.137 1552.65 187.757C1383.25 295.398 1259.79 501.165 1304.91 627.413C1311.81 646.712 1315.26 656.361 1310.9 659.885C1306.54 663.409 1299.16 658.867 1284.4 649.781C1260.39 635.008 1231.87 610.824 1212.04 572.719C1206.23 561.539 1203.32 555.95 1199.05 555.527C1194.78 555.104 1191.11 559.661 1183.78 568.773C970.629 833.611 1057.01 1098.09 1180.11 1194.81C1182.08 1196.36 1183.06 1197.13 1184.32 1197.56C1185.58 1198 1186.9 1198 1189.55 1198Z" fill="#1F1010" fill-opacity="0.27"/>
<path d="M1720.52 595.867C1731.43 717.54 1658.09 800.765 1574.32 858.415C1559.7 868.48 1552.39 873.512 1553.02 878.306C1553.65 883.1 1562.39 886.205 1579.87 892.414C1691.56 932.096 1696.64 1045.84 1687.39 1180.99C1686.84 1188.99 1686.57 1192.98 1688.92 1195.49C1691.26 1198 1695.25 1198 1703.23 1198H1773C1775.12 1198 1776.17 1198 1777.2 1197.72C1778.22 1197.44 1779.13 1196.91 1780.94 1195.84C2031.05 1048.57 1896.77 696.786 1744.19 580.666C1733.06 572.201 1727.5 567.968 1722.98 570.459C1718.46 572.95 1719.15 580.589 1720.52 595.867Z" fill="#1F1010" fill-opacity="0.27"/>
<path d="M1367.48 1079.44C1367.48 1057.41 1367.48 1046.39 1369.3 1037.23C1376.8 999.6 1406.26 970.188 1443.95 962.704C1453.13 960.882 1464.17 960.882 1486.24 960.882C1508.32 960.882 1519.35 960.882 1528.53 962.704C1566.22 970.188 1595.69 999.6 1603.18 1037.23C1605.01 1046.39 1605.01 1057.41 1605.01 1079.44V1118.96C1605.01 1148.51 1605.01 1163.28 1598.64 1174.29C1594.47 1181.5 1588.48 1187.48 1581.26 1191.65C1570.23 1198 1555.43 1198 1525.83 1198H1446.65C1417.05 1198 1402.25 1198 1391.23 1191.65C1384.01 1187.48 1378.01 1181.5 1373.84 1174.29C1367.48 1163.28 1367.48 1148.51 1367.48 1118.96V1079.44Z" stroke="url(#paint6_linear_227_406)"/>
<path d="M1189.55 1198H1270.94C1280.16 1198 1284.76 1198 1287.14 1195.08C1289.52 1192.15 1288.52 1187.44 1286.53 1178.01C1208.16 806.76 1570.57 890.221 1623.04 633.367C1649.82 502.275 1573.59 326.32 1578.09 204.062C1578.66 188.738 1578.94 181.076 1574.79 178.702C1570.64 176.327 1564.64 180.137 1552.65 187.757C1383.25 295.398 1259.79 501.165 1304.91 627.413C1311.81 646.712 1315.26 656.361 1310.9 659.885C1306.54 663.409 1299.16 658.867 1284.4 649.781C1260.39 635.008 1231.87 610.824 1212.04 572.719C1206.23 561.539 1203.32 555.95 1199.05 555.527C1194.78 555.104 1191.11 559.661 1183.78 568.773C970.629 833.611 1057.01 1098.09 1180.11 1194.81C1182.08 1196.36 1183.06 1197.13 1184.32 1197.56C1185.58 1198 1186.9 1198 1189.55 1198Z" stroke="url(#paint7_linear_227_406)"/>
<path d="M1720.52 595.867C1731.43 717.54 1658.09 800.765 1574.32 858.415C1559.7 868.48 1552.39 873.512 1553.02 878.306C1553.65 883.1 1562.39 886.205 1579.87 892.414C1691.56 932.096 1696.64 1045.84 1687.39 1180.99C1686.84 1188.99 1686.57 1192.98 1688.92 1195.49C1691.26 1198 1695.25 1198 1703.23 1198H1773C1775.12 1198 1776.17 1198 1777.2 1197.72C1778.22 1197.44 1779.13 1196.91 1780.94 1195.84C2031.05 1048.57 1896.77 696.786 1744.19 580.666C1733.06 572.201 1727.5 567.968 1722.98 570.459C1718.46 572.95 1719.15 580.589 1720.52 595.867Z" stroke="url(#paint8_linear_227_406)"/>
<g filter="url(#filter0_d_227_406)">
<path d="M1367.48 1079.44C1367.48 1057.41 1367.48 1046.39 1369.3 1037.23C1376.8 999.6 1406.26 970.188 1443.95 962.704C1453.13 960.882 1464.17 960.882 1486.24 960.882C1508.32 960.882 1519.35 960.882 1528.53 962.704C1566.22 970.188 1595.69 999.6 1603.18 1037.23C1605.01 1046.39 1605.01 1057.41 1605.01 1079.44V1118.96C1605.01 1148.51 1605.01 1163.28 1598.64 1174.29C1594.47 1181.5 1588.48 1187.48 1581.26 1191.65C1570.23 1198 1555.43 1198 1525.83 1198H1446.65C1417.05 1198 1402.25 1198 1391.23 1191.65C1384.01 1187.48 1378.01 1181.5 1373.84 1174.29C1367.48 1163.28 1367.48 1148.51 1367.48 1118.96V1079.44Z" fill="#1F1010" fill-opacity="0.27" shape-rendering="crispEdges"/>
<path d="M1189.55 1198H1270.94C1280.16 1198 1284.76 1198 1287.14 1195.08C1289.52 1192.15 1288.52 1187.44 1286.53 1178.01C1208.16 806.76 1570.57 890.221 1623.04 633.367C1649.82 502.275 1573.59 326.32 1578.09 204.062C1578.66 188.738 1578.94 181.076 1574.79 178.702C1570.64 176.327 1564.64 180.137 1552.65 187.757C1383.25 295.398 1259.79 501.165 1304.91 627.413C1311.81 646.712 1315.26 656.361 1310.9 659.885C1306.54 663.409 1299.16 658.867 1284.4 649.781C1260.39 635.008 1231.87 610.824 1212.04 572.719C1206.23 561.539 1203.32 555.95 1199.05 555.527C1194.78 555.104 1191.11 559.661 1183.78 568.773C970.629 833.611 1057.01 1098.09 1180.11 1194.81C1182.08 1196.36 1183.06 1197.13 1184.32 1197.56C1185.58 1198 1186.9 1198 1189.55 1198Z" fill="#1F1010" fill-opacity="0.27" shape-rendering="crispEdges"/>
<path d="M1720.52 595.867C1731.43 717.54 1658.09 800.765 1574.32 858.415C1559.7 868.48 1552.39 873.512 1553.02 878.306C1553.65 883.1 1562.39 886.205 1579.87 892.414C1691.56 932.096 1696.64 1045.84 1687.39 1180.99C1686.84 1188.99 1686.57 1192.98 1688.92 1195.49C1691.26 1198 1695.25 1198 1703.23 1198H1773C1775.12 1198 1776.17 1198 1777.2 1197.72C1778.22 1197.44 1779.13 1196.91 1780.94 1195.84C2031.05 1048.57 1896.77 696.786 1744.19 580.666C1733.06 572.201 1727.5 567.968 1722.98 570.459C1718.46 572.95 1719.15 580.589 1720.52 595.867Z" fill="#1F1010" fill-opacity="0.27" shape-rendering="crispEdges"/>
<path d="M1367.48 1079.44C1367.48 1057.41 1367.48 1046.39 1369.3 1037.23C1376.8 999.6 1406.26 970.188 1443.95 962.704C1453.13 960.882 1464.17 960.882 1486.24 960.882C1508.32 960.882 1519.35 960.882 1528.53 962.704C1566.22 970.188 1595.69 999.6 1603.18 1037.23C1605.01 1046.39 1605.01 1057.41 1605.01 1079.44V1118.96C1605.01 1148.51 1605.01 1163.28 1598.64 1174.29C1594.47 1181.5 1588.48 1187.48 1581.26 1191.65C1570.23 1198 1555.43 1198 1525.83 1198H1446.65C1417.05 1198 1402.25 1198 1391.23 1191.65C1384.01 1187.48 1378.01 1181.5 1373.84 1174.29C1367.48 1163.28 1367.48 1148.51 1367.48 1118.96V1079.44Z" stroke="url(#paint9_linear_227_406)" shape-rendering="crispEdges"/>
<path d="M1189.55 1198H1270.94C1280.16 1198 1284.76 1198 1287.14 1195.08C1289.52 1192.15 1288.52 1187.44 1286.53 1178.01C1208.16 806.76 1570.57 890.221 1623.04 633.367C1649.82 502.275 1573.59 326.32 1578.09 204.062C1578.66 188.738 1578.94 181.076 1574.79 178.702C1570.64 176.327 1564.64 180.137 1552.65 187.757C1383.25 295.398 1259.79 501.165 1304.91 627.413C1311.81 646.712 1315.26 656.361 1310.9 659.885C1306.54 663.409 1299.16 658.867 1284.4 649.781C1260.39 635.008 1231.87 610.824 1212.04 572.719C1206.23 561.539 1203.32 555.95 1199.05 555.527C1194.78 555.104 1191.11 559.661 1183.78 568.773C970.629 833.611 1057.01 1098.09 1180.11 1194.81C1182.08 1196.36 1183.06 1197.13 1184.32 1197.56C1185.58 1198 1186.9 1198 1189.55 1198Z" stroke="url(#paint10_linear_227_406)" shape-rendering="crispEdges"/>
<path d="M1720.52 595.867C1731.43 717.54 1658.09 800.765 1574.32 858.415C1559.7 868.48 1552.39 873.512 1553.02 878.306C1553.65 883.1 1562.39 886.205 1579.87 892.414C1691.56 932.096 1696.64 1045.84 1687.39 1180.99C1686.84 1188.99 1686.57 1192.98 1688.92 1195.49C1691.26 1198 1695.25 1198 1703.23 1198H1773C1775.12 1198 1776.17 1198 1777.2 1197.72C1778.22 1197.44 1779.13 1196.91 1780.94 1195.84C2031.05 1048.57 1896.77 696.786 1744.19 580.666C1733.06 572.201 1727.5 567.968 1722.98 570.459C1718.46 572.95 1719.15 580.589 1720.52 595.867Z" stroke="url(#paint11_linear_227_406)" shape-rendering="crispEdges"/>
</g>
</g>
<rect width="1920" height="202" transform="translate(0 878)" fill="url(#paint12_radial_227_406)"/>
<g filter="url(#filter1_bf_227_406)">
<rect width="57" height="26" transform="translate(941 918)" fill="black" fill-opacity="0.01"/>
</g>
<rect width="1920" height="202" transform="translate(1920 1282) rotate(-180)" fill="url(#paint13_radial_227_406)"/>
</g>
<defs>
<filter id="filter0_d_227_406" x="964.7" y="92.6998" width="1044.6" height="1198.6" filterUnits="userSpaceOnUse" color-interpolation-filters="sRGB">
<feFlood flood-opacity="0" result="BackgroundImageFix"/>
<feColorMatrix in="SourceAlpha" type="matrix" values="0 0 0 0 0 0 0 0 0 0 0 0 0 0 0 0 0 0 127 0" result="hardAlpha"/>
<feOffset dy="4"/>
<feGaussianBlur stdDeviation="44.4"/>
<feComposite in2="hardAlpha" operator="out"/>
<feColorMatrix type="matrix" values="0 0 0 0 0.870833 0 0 0 0 0.246736 0 0 0 0 0.246736 0 0 0 0.06 0"/>
<feBlend mode="normal" in2="BackgroundImageFix" result="effect1_dropShadow_227_406"/>
<feBlend mode="normal" in="SourceGraphic" in2="effect1_dropShadow_227_406" result="shape"/>
</filter>
<filter id="filter1_bf_227_406" x="913.5" y="890.5" width="112" height="81" filterUnits="userSpaceOnUse" color-interpolation-filters="sRGB">
<feFlood flood-opacity="0" result="BackgroundImageFix"/>
<feGaussianBlur in="BackgroundImageFix" stdDeviation="13.75"/>
<feComposite in2="SourceAlpha" operator="in" result="effect1_backgroundBlur_227_406"/>
<feBlend mode="normal" in="SourceGraphic" in2="effect1_backgroundBlur_227_406" result="shape"/>
<feGaussianBlur stdDeviation="7.55" result="effect2_foregroundBlur_227_406"/>
</filter>
<linearGradient id="paint0_linear_227_406" x1="1492" y1="133" x2="1492" y2="1283" gradientUnits="userSpaceOnUse">
<stop stop-color="#261B1B"/>
<stop offset="1" stop-color="#261B1B" stop-opacity="0"/>
</linearGradient>
<linearGradient id="paint1_linear_227_406" x1="1492" y1="133" x2="1492" y2="1283" gradientUnits="userSpaceOnUse">
<stop stop-color="#F06032"/>
<stop offset="1" stop-color="#F06032" stop-opacity="0"/>
</linearGradient>
<linearGradient id="paint2_linear_227_406" x1="1443" y1="33" x2="1443" y2="1283" gradientUnits="userSpaceOnUse">
<stop stop-color="#261B1B"/>
<stop offset="1" stop-color="#261B1B" stop-opacity="0"/>
</linearGradient>
<linearGradient id="paint3_linear_227_406" x1="1443" y1="33" x2="1443" y2="1283" gradientUnits="userSpaceOnUse">
<stop stop-color="#F06032"/>
<stop offset="1" stop-color="#F06032" stop-opacity="0"/>
</linearGradient>
<linearGradient id="paint4_linear_227_406" x1="1395.5" y1="-64" x2="1395.5" y2="1283" gradientUnits="userSpaceOnUse">
<stop stop-color="#261B1B"/>
<stop offset="1" stop-color="#261B1B" stop-opacity="0"/>
</linearGradient>
<linearGradient id="paint5_linear_227_406" x1="1395.5" y1="-64" x2="1395.5" y2="1283" gradientUnits="userSpaceOnUse">
<stop stop-color="#F06032"/>
<stop offset="1" stop-color="#F06032" stop-opacity="0"/>
</linearGradient>
<linearGradient id="paint6_linear_227_406" x1="1487" y1="178" x2="1487" y2="1198" gradientUnits="userSpaceOnUse">
<stop stop-color="#661B2D" stop-opacity="0.1"/>
<stop offset="1" stop-color="#561919" stop-opacity="0.71"/>
</linearGradient>
<linearGradient id="paint7_linear_227_406" x1="1487" y1="178" x2="1487" y2="1198" gradientUnits="userSpaceOnUse">
<stop stop-color="#661B2D" stop-opacity="0.1"/>
<stop offset="1" stop-color="#561919" stop-opacity="0.71"/>
</linearGradient>
<linearGradient id="paint8_linear_227_406" x1="1487" y1="178" x2="1487" y2="1198" gradientUnits="userSpaceOnUse">
<stop stop-color="#661B2D" stop-opacity="0.1"/>
<stop offset="1" stop-color="#561919" stop-opacity="0.71"/>
</linearGradient>
<linearGradient id="paint9_linear_227_406" x1="1487" y1="178" x2="1487" y2="1198" gradientUnits="userSpaceOnUse">
<stop stop-color="#661B2D" stop-opacity="0.1"/>
<stop offset="1" stop-color="#561919" stop-opacity="0.71"/>
</linearGradient>
<linearGradient id="paint10_linear_227_406" x1="1487" y1="178" x2="1487" y2="1198" gradientUnits="userSpaceOnUse">
<stop stop-color="#661B2D" stop-opacity="0.1"/>
<stop offset="1" stop-color="#561919" stop-opacity="0.71"/>
</linearGradient>
<linearGradient id="paint11_linear_227_406" x1="1487" y1="178" x2="1487" y2="1198" gradientUnits="userSpaceOnUse">
<stop stop-color="#661B2D" stop-opacity="0.1"/>
<stop offset="1" stop-color="#561919" stop-opacity="0.71"/>
</linearGradient>
<radialGradient id="paint12_radial_227_406" cx="0" cy="0" r="1" gradientUnits="userSpaceOnUse" gradientTransform="translate(960 -8.49999) rotate(90) scale(210.5 2000.79)">
<stop offset="0.440706" stop-opacity="0"/>
<stop offset="1" stop-color="#020101"/>
</radialGradient>
<radialGradient id="paint13_radial_227_406" cx="0" cy="0" r="1" gradientUnits="userSpaceOnUse" gradientTransform="translate(960 -8.49999) rotate(90) scale(210.5 2000.79)">
<stop offset="0.440706" stop-opacity="0"/>
<stop offset="1" stop-color="#020101"/>
</radialGradient>
<clipPath id="clip0_227_406">
<rect width="1920" height="1080" fill="white"/>
</clipPath>
<clipPath id="clip1_227_406">
<rect width="1920" height="1080" fill="white"/>
</clipPath>
</defs>
</svg>
