<svg width="171" height="84" viewBox="0 0 171 84" fill="none" xmlns="http://www.w3.org/2000/svg">
<g filter="url(#filter0_diii_206_26)">
<path d="M11.6226 56.3759C11.6226 55.5666 11.6226 55.162 11.6903 54.8255C11.9683 53.4437 13.0606 52.3636 14.4581 52.0887C14.7984 52.0218 15.2076 52.0218 16.026 52.0218C16.8444 52.0218 17.2536 52.0218 17.5939 52.0887C18.9913 52.3636 20.0837 53.4437 20.3617 54.8255C20.4294 55.162 20.4294 55.5666 20.4294 56.3759V57.8273C20.4294 58.9124 20.4294 59.455 20.1934 59.8592C20.0388 60.1239 19.8165 60.3438 19.5487 60.4966C19.14 60.73 18.5912 60.73 17.4938 60.73H14.5582C13.4607 60.73 12.912 60.73 12.5033 60.4966C12.2355 60.3438 12.0132 60.1239 11.8586 59.8592C11.6226 59.455 11.6226 58.9124 11.6226 57.8273V56.3759Z" fill="url(#paint0_radial_206_26)"/>
<path d="M11.6226 56.3759C11.6226 55.5666 11.6226 55.162 11.6903 54.8255C11.9683 53.4437 13.0606 52.3636 14.4581 52.0887C14.7984 52.0218 15.2076 52.0218 16.026 52.0218C16.8444 52.0218 17.2536 52.0218 17.5939 52.0887C18.9913 52.3636 20.0837 53.4437 20.3617 54.8255C20.4294 55.162 20.4294 55.5666 20.4294 56.3759V57.8273C20.4294 58.9124 20.4294 59.455 20.1934 59.8592C20.0388 60.1239 19.8165 60.3438 19.5487 60.4966C19.14 60.73 18.5912 60.73 17.4938 60.73H14.5582C13.4607 60.73 12.912 60.73 12.5033 60.4966C12.2355 60.3438 12.0132 60.1239 11.8586 59.8592C11.6226 59.455 11.6226 58.9124 11.6226 57.8273V56.3759Z" fill="#F3B4A6" fill-opacity="0.06"/>
<path d="M5.02572 60.73H8.04337C8.38503 60.73 8.55586 60.73 8.64397 60.6226C8.73208 60.5152 8.69518 60.342 8.62136 59.9957C5.71551 46.3617 19.1526 49.4268 21.098 39.9939C22.091 35.1795 19.2646 28.7176 19.4315 24.2276C19.4524 23.6649 19.4629 23.3835 19.3089 23.2963C19.155 23.2091 18.9327 23.349 18.4881 23.6288C12.2073 27.5819 7.63008 35.1387 9.30292 39.7752C9.55864 40.4839 9.6865 40.8383 9.52481 40.9677C9.36311 41.0971 9.08948 40.9303 8.54223 40.5967C7.65236 40.0541 6.59483 39.1659 5.85968 37.7665C5.64399 37.356 5.53614 37.1507 5.37791 37.1352C5.21968 37.1197 5.08372 37.287 4.81181 37.6216C-3.09109 47.3478 0.111458 57.0606 4.67587 60.613C4.74871 60.6697 4.78513 60.698 4.83181 60.714C4.87848 60.73 4.92756 60.73 5.02572 60.73Z" fill="url(#paint1_radial_206_26)"/>
<path d="M5.02572 60.73H8.04337C8.38503 60.73 8.55586 60.73 8.64397 60.6226C8.73208 60.5152 8.69518 60.342 8.62136 59.9957C5.71551 46.3617 19.1526 49.4268 21.098 39.9939C22.091 35.1795 19.2646 28.7176 19.4315 24.2276C19.4524 23.6649 19.4629 23.3835 19.3089 23.2963C19.155 23.2091 18.9327 23.349 18.4881 23.6288C12.2073 27.5819 7.63008 35.1387 9.30292 39.7752C9.55864 40.4839 9.6865 40.8383 9.52481 40.9677C9.36311 41.0971 9.08948 40.9303 8.54223 40.5967C7.65236 40.0541 6.59483 39.1659 5.85968 37.7665C5.64399 37.356 5.53614 37.1507 5.37791 37.1352C5.21968 37.1197 5.08372 37.287 4.81181 37.6216C-3.09109 47.3478 0.111458 57.0606 4.67587 60.613C4.74871 60.6697 4.78513 60.698 4.83181 60.714C4.87848 60.73 4.92756 60.73 5.02572 60.73Z" fill="#F3B4A6" fill-opacity="0.06"/>
<path d="M24.712 38.6166C25.1166 43.0851 22.3975 46.1415 19.2917 48.2587C18.7495 48.6284 18.4784 48.8132 18.5018 48.9892C18.5253 49.1653 18.8493 49.2793 19.4973 49.5074C23.6384 50.9647 23.8266 55.142 23.4837 60.1054C23.4635 60.3989 23.4533 60.5457 23.5404 60.6378C23.6274 60.73 23.7753 60.73 24.0712 60.73H26.658C26.7363 60.73 26.7755 60.73 26.8134 60.7197C26.8514 60.7095 26.8851 60.6898 26.9524 60.6506C36.2255 55.2423 31.2468 42.3229 25.5897 38.0584C25.1772 37.7475 24.971 37.5921 24.8034 37.6835C24.6358 37.775 24.6612 38.0556 24.712 38.6166Z" fill="url(#paint2_radial_206_26)"/>
<path d="M24.712 38.6166C25.1166 43.0851 22.3975 46.1415 19.2917 48.2587C18.7495 48.6284 18.4784 48.8132 18.5018 48.9892C18.5253 49.1653 18.8493 49.2793 19.4973 49.5074C23.6384 50.9647 23.8266 55.142 23.4837 60.1054C23.4635 60.3989 23.4533 60.5457 23.5404 60.6378C23.6274 60.73 23.7753 60.73 24.0712 60.73H26.658C26.7363 60.73 26.7755 60.73 26.8134 60.7197C26.8514 60.7095 26.8851 60.6898 26.9524 60.6506C36.2255 55.2423 31.2468 42.3229 25.5897 38.0584C25.1772 37.7475 24.971 37.5921 24.8034 37.6835C24.6358 37.775 24.6612 38.0556 24.712 38.6166Z" fill="#F3B4A6" fill-opacity="0.06"/>
</g>
<path d="M50.2679 40.0593C51.6869 38.6776 53.3927 37.9868 55.3853 37.9868C57.3779 37.9868 59.0761 38.6776 60.48 40.0593C61.899 41.4262 62.6085 43.0797 62.6085 45.0199C62.6085 46.96 61.899 48.6209 60.48 50.0025C59.0761 51.3695 57.3779 52.0529 55.3853 52.0529C54.738 52.0529 54.1059 51.9715 53.4891 51.8087C52.8409 51.6375 52.5168 51.552 52.3434 51.681C52.17 51.8101 52.17 52.1064 52.17 52.699V55.9119C52.17 56.175 52.17 56.3065 52.1021 56.4115C52.0342 56.5164 51.9124 56.5733 51.6687 56.6872L49.4284 57.734C48.8596 57.9997 48.5752 58.1326 48.3687 58.0061C48.1621 57.8796 48.1621 57.5727 48.1621 56.9587V45.0199C48.1621 43.0797 48.864 41.4262 50.2679 40.0593ZM57.6496 42.8372C57.0307 42.2199 56.2759 41.9112 55.3853 41.9112C54.4947 41.9112 53.7323 42.2199 53.0983 42.8372C52.4794 43.4398 52.17 44.1674 52.17 45.0199C52.17 45.8871 52.4794 46.6293 53.0983 47.2466C53.7323 47.8493 54.4947 48.1506 55.3853 48.1506C56.2759 48.1506 57.0307 47.8493 57.6496 47.2466C58.2836 46.6293 58.6006 45.8871 58.6006 45.0199C58.6006 44.1674 58.2836 43.4398 57.6496 42.8372Z" fill="white"/>
<path d="M71.4085 52.9789C70.8802 54.3752 69.9971 55.4849 68.7593 56.308C67.83 56.9448 66.8309 57.3438 65.7622 57.5051C65.3142 57.5727 65.0902 57.6065 64.9318 57.4529C64.7733 57.2994 64.81 57.0624 64.8833 56.5883L65.2247 54.3826C65.2643 54.1268 65.2841 53.999 65.3393 53.9189C65.3944 53.8389 65.6024 53.7178 66.0182 53.4755C66.2745 53.3263 66.4393 53.1433 66.495 53.0891C66.5905 52.9962 67.4007 52.2367 67.6271 51.634L67.8591 51.041C67.9234 50.8767 67.9556 50.7946 67.953 50.7091C67.9505 50.6236 67.9135 50.5434 67.8396 50.383L62.6836 39.1988C62.4317 38.6526 62.3058 38.3794 62.4364 38.1831C62.567 37.9868 62.8747 37.9868 63.4899 37.9868H65.934C66.217 37.9868 66.3585 37.9868 66.4693 38.058C66.5801 38.1292 66.6356 38.2558 66.7468 38.5091L69.0596 43.7801C69.4389 44.6445 69.6285 45.0767 69.9315 45.0662C70.2345 45.0558 70.3922 44.6116 70.7077 43.7232L72.5388 38.566C72.6382 38.2863 72.6878 38.1464 72.8029 38.0666C72.918 37.9868 73.07 37.9868 73.3741 37.9868H75.7613C76.3356 37.9868 76.6228 37.9868 76.7547 38.1703C76.8866 38.3537 76.7883 38.6162 76.5916 39.1413L71.4085 52.9789Z" fill="white"/>
<path d="M76.8503 45.0199C76.8503 43.0797 77.5522 41.4262 78.9561 40.0593C80.1166 38.9293 81.9307 38.2614 83.6431 38.0556C84.1321 37.9968 84.3765 37.9674 84.5306 38.1358C84.6848 38.3041 84.6228 38.5526 84.499 39.0495L83.9495 41.2539C83.88 41.533 83.8452 41.6725 83.7616 41.7565C83.6781 41.8405 83.4848 41.8927 83.0984 41.9971C82.5806 42.1369 82.1843 42.4387 81.7749 42.8372C81.2019 43.3948 81.2608 44.1674 81.2608 45.0199V51.5005C81.2608 51.7688 81.2608 51.9029 81.1907 52.0091C81.1206 52.1153 80.9952 52.1711 80.7445 52.2826L78.1015 53.4585C77.5381 53.7091 77.2564 53.8345 77.0533 53.7075C76.8503 53.5806 76.8503 53.2792 76.8503 52.6764V45.0199Z" fill="white"/>
<path d="M86.6594 40.0593C88.0784 38.6776 89.7842 37.9868 91.7768 37.9868C93.7694 37.9868 95.4676 38.6776 96.8715 40.0593C98.2905 41.4262 98.9999 43.0797 98.9999 45.0199C98.9999 46.96 98.2905 48.6209 96.8715 50.0025C95.4676 51.3695 93.7694 52.0529 91.7768 52.0529C89.7842 52.0529 88.0784 51.3695 86.6594 50.0025C85.2555 48.6209 84.5536 46.96 84.5536 45.0199C84.5536 43.0797 85.2555 41.4262 86.6594 40.0593ZM94.0411 42.8152C93.4222 42.1978 92.6674 41.8892 91.7768 41.8892C90.8861 41.8892 90.1238 42.1978 89.4898 42.8152C88.8709 43.4178 88.5614 44.1527 88.5614 45.0199C88.5614 45.8724 88.8709 46.6073 89.4898 47.2246C90.1238 47.8272 90.8861 48.1285 91.7768 48.1285C92.6674 48.1285 93.4222 47.8272 94.0411 47.2246C94.6751 46.6073 94.9921 45.8724 94.9921 45.0199C94.9921 44.1527 94.6751 43.4178 94.0411 42.8152Z" fill="white"/>
<defs>
<filter id="filter0_diii_206_26" x="-138.5" y="-146.229" width="309.108" height="314.459" filterUnits="userSpaceOnUse" color-interpolation-filters="sRGB">
<feFlood flood-opacity="0" result="BackgroundImageFix"/>
<feColorMatrix in="SourceAlpha" type="matrix" values="0 0 0 0 0 0 0 0 0 0 0 0 0 0 0 0 0 0 127 0" result="hardAlpha"/>
<feOffset dy="-31"/>
<feGaussianBlur stdDeviation="69.25"/>
<feComposite in2="hardAlpha" operator="out"/>
<feColorMatrix type="matrix" values="0 0 0 0 0.9375 0 0 0 0 0.46 0 0 0 0 0.191406 0 0 0 0.04 0"/>
<feBlend mode="normal" in2="BackgroundImageFix" result="effect1_dropShadow_206_26"/>
<feBlend mode="normal" in="SourceGraphic" in2="effect1_dropShadow_206_26" result="shape"/>
<feColorMatrix in="SourceAlpha" type="matrix" values="0 0 0 0 0 0 0 0 0 0 0 0 0 0 0 0 0 0 127 0" result="hardAlpha"/>
<feOffset dy="20"/>
<feGaussianBlur stdDeviation="21.55"/>
<feComposite in2="hardAlpha" operator="arithmetic" k2="-1" k3="1"/>
<feColorMatrix type="matrix" values="0 0 0 0 0.9375 0 0 0 0 0.144531 0 0 0 0 0.144531 0 0 0 0.29 0"/>
<feBlend mode="normal" in2="shape" result="effect2_innerShadow_206_26"/>
<feColorMatrix in="SourceAlpha" type="matrix" values="0 0 0 0 0 0 0 0 0 0 0 0 0 0 0 0 0 0 127 0" result="hardAlpha"/>
<feOffset dy="14"/>
<feGaussianBlur stdDeviation="5.85"/>
<feComposite in2="hardAlpha" operator="arithmetic" k2="-1" k3="1"/>
<feColorMatrix type="matrix" values="0 0 0 0 0 0 0 0 0 0 0 0 0 0 0 0 0 0 0.24 0"/>
<feBlend mode="normal" in2="effect2_innerShadow_206_26" result="effect3_innerShadow_206_26"/>
<feColorMatrix in="SourceAlpha" type="matrix" values="0 0 0 0 0 0 0 0 0 0 0 0 0 0 0 0 0 0 127 0" result="hardAlpha"/>
<feOffset dy="-4"/>
<feGaussianBlur stdDeviation="10.15"/>
<feComposite in2="hardAlpha" operator="arithmetic" k2="-1" k3="1"/>
<feColorMatrix type="matrix" values="0 0 0 0 0.9125 0 0 0 0 0.65373 0 0 0 0 0.596927 0 0 0 0.29 0"/>
<feBlend mode="normal" in2="effect3_innerShadow_206_26" result="effect4_innerShadow_206_26"/>
</filter>
<radialGradient id="paint0_radial_206_26" cx="0" cy="0" r="1" gradientUnits="userSpaceOnUse" gradientTransform="translate(15.999 28.2777) rotate(90) scale(40.9283 35.0814)">
<stop stop-color="#FF343C"/>
<stop offset="1" stop-color="#F06F53"/>
</radialGradient>
<radialGradient id="paint1_radial_206_26" cx="0" cy="0" r="1" gradientUnits="userSpaceOnUse" gradientTransform="translate(15.999 28.2777) rotate(90) scale(40.9283 35.0814)">
<stop stop-color="#FF343C"/>
<stop offset="1" stop-color="#F06F53"/>
</radialGradient>
<radialGradient id="paint2_radial_206_26" cx="0" cy="0" r="1" gradientUnits="userSpaceOnUse" gradientTransform="translate(15.999 28.2777) rotate(90) scale(40.9283 35.0814)">
<stop stop-color="#FF343C"/>
<stop offset="1" stop-color="#F06F53"/>
</radialGradient>
</defs>
</svg>
