<svg width="1024" height="1024" viewBox="0 0 1024 1024" fill="none" xmlns="http://www.w3.org/2000/svg">
<path d="M428.638 785.357C428.638 769.997 428.638 762.317 429.911 755.931C435.14 729.704 455.69 709.202 481.977 703.985C488.379 702.715 496.076 702.715 511.472 702.715C526.868 702.715 534.566 702.715 540.967 703.985C567.255 709.202 587.804 729.704 593.033 755.931C594.306 762.317 594.306 769.997 594.306 785.357V812.905C594.306 833.502 594.306 843.801 589.867 851.471C586.959 856.497 582.776 860.67 577.739 863.571C570.051 868 559.728 868 539.083 868H483.861C463.216 868 452.894 868 445.205 863.571C440.168 860.67 435.985 856.497 433.077 851.471C428.638 843.801 428.638 833.502 428.638 812.905V785.357Z" fill="white"/>
<path d="M304.541 868H361.307C367.734 868 370.948 868 372.606 865.961C374.263 863.923 373.569 860.636 372.18 854.062C317.517 595.283 570.288 653.46 606.885 474.418C625.563 383.039 572.396 260.388 575.535 175.167C575.928 164.485 576.125 159.144 573.229 157.489C570.334 155.834 566.151 158.49 557.787 163.801C439.637 238.833 353.533 382.265 385.001 470.267C389.812 483.72 392.217 490.446 389.175 492.902C386.134 495.359 380.986 492.192 370.692 485.859C353.952 475.561 334.058 458.704 320.229 432.142C316.172 424.35 314.143 420.453 311.166 420.159C308.19 419.864 305.632 423.04 300.517 429.392C151.852 614 212.097 798.354 297.96 865.779C299.33 866.855 300.015 867.393 300.893 867.697C301.771 868 302.695 868 304.541 868Z" fill="white"/>
<path d="M674.869 448.278C682.48 533.091 631.329 591.104 572.905 631.289C562.706 638.305 557.606 641.813 558.047 645.155C558.487 648.496 564.582 650.661 576.772 654.989C654.673 682.649 658.213 761.938 651.763 856.146C651.382 861.717 651.191 864.502 652.828 866.251C654.465 868 657.248 868 662.813 868H711.475C712.949 868 713.686 868 714.399 867.806C715.113 867.611 715.747 867.238 717.013 866.493C891.454 763.842 797.798 518.624 691.378 437.682C683.62 431.781 679.741 428.831 676.588 430.567C673.435 432.303 673.913 437.628 674.869 448.278Z" fill="white"/>
</svg>
